<svg width="115" height="20" viewBox="0 0 115 20" fill="none" xmlns="http://www.w3.org/2000/svg">
<g id="Logo">
<path id="Vector" d="M24.0526 16.4658C25.7072 16.4658 27.1168 15.1808 27.1168 12.9319C27.1168 10.6293 25.7342 9.42436 24.0526 9.42436C22.2899 9.42436 20.961 10.6293 20.961 12.9319C20.961 15.127 22.344 16.4658 24.0526 16.4658ZM27.1442 17.885C26.5475 19.1703 25.1915 19.9733 23.5104 19.9733C19.5509 19.9733 16.812 17.0014 16.812 12.9048C16.812 8.94242 19.388 5.89014 23.3745 5.89014C25.7883 5.89014 26.8458 7.20219 27.1169 7.81799V6.29173H31.1038V17.2158C31.1038 18.4474 31.1852 19.3042 31.2122 19.5985H27.2528C27.1987 19.3042 27.1443 18.5812 27.1443 18.0188V17.885H27.1442Z" fill="#FE5854"/>
<path id="Vector_2" d="M39.3057 6.29162H41.9361V9.85255H39.3057V14.8327C39.3057 15.9304 39.9024 16.2249 40.7973 16.2249C41.231 16.2249 41.638 16.1447 41.8821 16.091V19.4647C41.7191 19.5451 41.0414 19.8394 39.7394 19.8394C36.9463 19.8394 35.2377 18.2063 35.2377 15.5555V9.85255H32.8513V6.29162H33.5292C34.9396 6.29162 35.6174 5.3548 35.6174 4.1232V2.40967H39.3057V6.29162Z" fill="#FE5854"/>
<path id="Vector_3" d="M50.657 16.4658C52.3111 16.4658 53.7212 15.1808 53.7212 12.9319C53.7212 10.6293 52.3382 9.42436 50.657 9.42436C48.8943 9.42436 47.565 10.6293 47.565 12.9319C47.565 15.127 48.9484 16.4658 50.657 16.4658ZM53.7482 17.885C53.1519 19.1703 51.7955 19.9733 50.1144 19.9733C46.1549 19.9733 43.416 17.0014 43.416 12.9048C43.416 8.94242 45.9924 5.89014 49.9789 5.89014C52.3927 5.89014 53.4502 7.20219 53.7213 7.81799V6.29173H57.7078V17.2158C57.7078 18.4474 57.7892 19.3042 57.8162 19.5985H53.8571C53.8027 19.3042 53.7482 18.5812 53.7482 18.0188V17.885Z" fill="#FE5854"/>
<path id="Vector_4" d="M63.9953 12.9585C63.9953 15.0735 65.4325 16.2517 67.141 16.2517C68.741 16.2517 69.6359 15.2611 69.9344 14.2701L73.5679 15.3678C72.9716 17.6971 70.7478 19.9997 67.141 19.9997C63.1271 19.9997 59.8999 17.0813 59.8999 12.9583C59.8999 8.80831 63.0459 5.88989 67.0054 5.88989C70.7207 5.88989 72.89 8.13877 73.4867 10.5218L69.7983 11.6196C69.5002 10.6023 68.6865 9.63832 67.0863 9.63832C65.3781 9.63855 63.9953 10.8164 63.9953 12.9585Z" fill="#FE5854"/>
<path id="Vector_5" d="M79.7199 19.5984H75.5979V0.214111H79.7199V7.14835C80.5606 6.31824 81.9707 5.94346 83.1641 5.94346C86.6895 5.94346 88.2625 8.32654 88.2625 11.245V19.5984H84.1405V11.9409C84.1405 10.6292 83.4353 9.6386 81.9437 9.6386C80.6422 9.6386 79.8014 10.5487 79.7199 11.7803V19.5984Z" fill="#FE5854"/>
<path id="Vector_6" d="M99.8329 11.3522C99.7784 10.3346 99.0736 9.10299 97.1209 9.10299C95.3852 9.10299 94.5171 10.3616 94.4359 11.3522H99.8329ZM103.575 15.7699C102.924 18.0725 100.782 20 97.3651 20C93.6497 20 90.3411 17.3762 90.3411 12.9048C90.3411 8.62094 93.5683 5.89014 97.0665 5.89014C101.243 5.89014 103.819 8.43378 103.819 12.7176C103.819 13.2796 103.765 13.8954 103.738 13.9759H94.3546C94.436 15.4751 95.8191 16.5462 97.4191 16.5462C98.9107 16.5462 99.7514 15.85 100.131 14.806L103.575 15.7699Z" fill="#FE5854"/>
<path id="Vector_7" d="M111.303 9.7188V19.5985H107.18V9.7188H105.038V6.29174H107.18V5.1406C107.18 2.08831 109.052 0 112.333 0C113.174 0 113.906 0.10716 114.286 0.294434V3.61434C114.069 3.56093 113.716 3.48047 113.065 3.48047C112.333 3.48047 111.303 3.80184 111.303 5.27446V6.29174H114.232V9.7188H111.303Z" fill="#FE5854"/>
<path id="Vector_8" d="M7.18666 16.2518C5.58663 16.2518 4.14914 15.127 4.14914 12.9319C4.14914 10.7094 5.58663 9.63871 7.18666 9.63871C8.78668 9.63871 10.2242 10.7094 10.2242 12.9319C10.2242 15.127 8.7868 16.2518 7.18666 16.2518ZM13.8733 11.7272L16.0594 0.214111H11.9914C11.3992 2.52924 10.8071 4.84448 10.2149 7.15961C9.96398 6.95642 9.59037 6.69074 9.09518 6.46244C8.01784 5.96585 7.05737 5.97051 6.53583 5.97051C2.71199 5.97051 0 8.94234 0 12.9048C0 15.4656 1.12324 17.5555 2.8927 18.7625C4.52919 19.8789 6.2309 19.8998 6.67099 19.8928C7.09118 19.886 8.96808 19.8151 10.5873 18.519C10.9827 18.2026 11.3307 17.8366 11.6395 17.4433C11.8191 18.1166 12.6361 19.5983 12.6361 19.5983H16.1675C16.1406 19.3041 13.8733 11.7272 13.8733 11.7272Z" fill="#FE5854"/>
</g>
</svg>
